<?xml version="1.0" encoding="utf-8"?>
<!-- Generator: Adobe Illustrator 25.0.0, SVG Export Plug-In . SVG Version: 6.00 Build 0)  -->
<svg version="1.1" id="Layer_1" xmlns="http://www.w3.org/2000/svg" xmlns:xlink="http://www.w3.org/1999/xlink" x="0px" y="0px"
	 viewBox="0 0 182.8 77.9" style="enable-background:new 0 0 182.8 77.9;" xml:space="preserve">
<style type="text/css">
	.st0{fill:#FFFFFF;}
</style>
<g>
	<path class="st0" d="M20,72.9c-6.1-3.2-11.1-8-14.7-13.9C1.7,52.9-0.1,46,0,39c-0.1-7.1,1.7-14,5.3-20.1C8.8,13,13.9,8.2,20,5
		c6.4-3.4,13.6-5.1,20.9-5C46.9-0.1,53,1.1,58.6,3.4c4.3,1.9,8.2,4.5,11.5,7.9c1,1,1,2.7,0,3.7c0,0,0,0-0.1,0l-7.4,6.9
		c-1,0.9-2.6,0.9-3.6-0.1c-4.6-4.6-10.8-7.1-17.2-7c-4.4-0.1-8.7,1-12.5,3.1c-3.6,2-6.6,5-8.5,8.6c-2.1,3.8-3.1,8.1-3.1,12.5
		c-0.1,4.4,1,8.7,3.1,12.5c2,3.6,4.9,6.6,8.5,8.5c3.8,2.1,8.1,3.1,12.5,3c6.5,0.1,12.7-2.4,17.3-7.1c1-1,2.6-1,3.6-0.1l7.4,6.9
		c1.1,1,1.1,2.6,0.1,3.7c0,0,0,0,0,0c-3.3,3.4-7.2,6.1-11.6,8c-5.6,2.4-11.7,3.5-17.8,3.4C33.5,78,26.4,76.3,20,72.9z"/>
	<circle class="st0" cx="41.8" cy="39" r="12.9"/>
	<path class="st0" d="M76.2,34.3c-1.5-0.1-3,0.5-4.1,1.7c-1,1.3-1.5,2.9-1.4,4.6c-0.1,1.7,0.5,3.4,1.6,4.6c1.1,1.1,2.7,1.7,4.2,1.6
		c0.8,0,1.6-0.1,2.4-0.4c0.6-0.2,1.3-0.5,1.9-0.9c0.4,0.3,0.7,0.7,0.9,1.2c0.2,0.5,0.3,1,0.3,1.5c0,1-0.7,1.9-1.6,2.4
		c-1.5,0.8-3.1,1.1-4.8,1c-1.5,0-2.9-0.2-4.3-0.7c-1.3-0.4-2.5-1.1-3.6-2c-1-1-1.9-2.1-2.4-3.5c-0.6-1.6-0.9-3.3-0.9-5
		c0-1.6,0.3-3.2,0.8-4.8c0.5-1.3,1.3-2.5,2.3-3.5c1-0.9,2.2-1.7,3.4-2.1c1.4-0.5,2.8-0.7,4.2-0.7c1.7-0.1,3.4,0.2,4.9,1
		c1.1,0.5,1.8,1.5,1.8,2.7c0,0.6-0.1,1.1-0.4,1.6c-0.3,0.4-0.6,0.7-1,1c-0.6-0.4-1.2-0.7-1.9-1C77.8,34.4,77,34.3,76.2,34.3z"/>
	<path class="st0" d="M90.8,51l-1.1,0.2c-0.5,0.1-1,0.1-1.5,0.1c-0.5,0-0.9,0-1.4-0.1c-0.4-0.1-0.7-0.2-1-0.4
		c-0.3-0.2-0.5-0.5-0.6-0.8c-0.2-0.4-0.2-0.9-0.2-1.4v-20l1.1-0.2c0.5-0.1,1-0.1,1.5-0.1c0.5,0,0.9,0,1.4,0.1c0.4,0.1,0.7,0.2,1,0.4
		c0.3,0.2,0.5,0.5,0.6,0.9c0.2,0.4,0.2,0.9,0.2,1.4L90.8,51z"/>
	<path class="st0" d="M101.4,33.7c1.1,0,2.3,0.1,3.4,0.4c0.9,0.2,1.8,0.6,2.6,1.2c0.7,0.5,1.3,1.2,1.7,2c0.4,0.9,0.6,1.8,0.6,2.8
		v7.7c0,0.5-0.2,1.1-0.5,1.5c-0.3,0.4-0.7,0.7-1.2,1c-2,1-4.1,1.5-6.3,1.3c-1.1,0-2.2-0.1-3.3-0.3c-0.9-0.2-1.7-0.5-2.5-1
		c-0.7-0.4-1.2-1-1.6-1.8c-0.4-0.8-0.6-1.7-0.6-2.6c-0.1-1.4,0.4-2.7,1.4-3.7c1.3-1,2.8-1.5,4.4-1.6l4.5-0.5V40
		c0-0.6-0.3-1.2-0.9-1.4c-0.8-0.3-1.7-0.5-2.5-0.4c-0.9,0-1.7,0.1-2.6,0.3c-0.8,0.2-1.5,0.4-2.2,0.7c-0.3-0.3-0.6-0.6-0.8-1
		c-0.2-0.4-0.3-0.9-0.3-1.3c0-0.5,0.1-1,0.4-1.4c0.4-0.4,0.8-0.7,1.3-0.9c0.8-0.3,1.6-0.5,2.4-0.5C99.7,33.8,100.5,33.7,101.4,33.7z
		 M101.7,47.3c0.4,0,0.9,0,1.3-0.1c0.4,0,0.7-0.2,1.1-0.3v-2.8l-2.5,0.2c-0.6,0-1.1,0.2-1.6,0.4c-0.4,0.2-0.6,0.6-0.6,1
		c0,0.4,0.2,0.9,0.5,1.1C100.4,47.2,101,47.4,101.7,47.3L101.7,47.3z"/>
	<path class="st0" d="M119.2,51c-0.4,0.1-0.7,0.2-1.1,0.2c-0.5,0.1-1,0.1-1.5,0.1c-0.5,0-0.9,0-1.4-0.1c-0.4-0.1-0.7-0.2-1-0.4
		c-0.3-0.2-0.5-0.5-0.6-0.8c-0.2-0.4-0.2-0.9-0.2-1.4V38.2c0-0.5,0.1-0.9,0.3-1.4c0.2-0.4,0.5-0.7,0.8-1c0.4-0.3,0.9-0.6,1.4-0.8
		c0.6-0.3,1.2-0.5,1.8-0.6c0.6-0.2,1.3-0.3,1.9-0.4c0.7-0.1,1.3-0.2,2-0.2c0.9,0,1.8,0.2,2.6,0.6c0.7,0.5,1.1,1.3,1,2.1
		c0,0.3,0,0.7-0.1,1c-0.1,0.3-0.2,0.6-0.3,0.8c-0.5,0-1,0-1.5,0.1s-1,0.1-1.5,0.2s-0.9,0.2-1.4,0.3c-0.4,0.1-0.7,0.2-1.1,0.4
		L119.2,51z"/>
	<path class="st0" d="M127.3,29.6c0-0.8,0.3-1.6,0.9-2.2c1.3-1.2,3.3-1.2,4.7,0c1.2,1.2,1.2,3.2,0,4.4c-1.3,1.2-3.3,1.2-4.7,0
		C127.6,31.2,127.3,30.4,127.3,29.6z M133.5,51l-1.1,0.2c-0.5,0.1-1,0.1-1.5,0.1c-0.5,0-0.9,0-1.4-0.1c-0.4-0.1-0.7-0.2-1-0.4
		c-0.3-0.2-0.5-0.5-0.6-0.8c-0.2-0.4-0.2-0.9-0.2-1.4v-14l1.1-0.2c0.5-0.1,1-0.1,1.5-0.1c0.5,0,0.9,0,1.4,0.1c0.4,0.1,0.7,0.2,1,0.4
		c0.3,0.2,0.5,0.5,0.6,0.8c0.2,0.4,0.2,0.9,0.2,1.4V51z"/>
	<path class="st0" d="M146.7,38.4c-0.6,0-1.1,0.1-1.6,0.3c-0.5,0.2-1,0.4-1.4,0.8c-0.4,0.4-0.7,0.8-0.9,1.3
		c-0.2,0.6-0.4,1.2-0.4,1.9c-0.1,1.2,0.4,2.4,1.2,3.2c0.8,0.7,1.9,1.1,3,1.1c0.6,0,1.2-0.1,1.8-0.2c0.5-0.1,0.9-0.3,1.4-0.5
		c0.4,0.3,0.7,0.6,1,1c0.2,0.4,0.4,0.9,0.3,1.4c0,0.9-0.5,1.8-1.4,2.2c-1.2,0.6-2.4,0.8-3.7,0.8c-1.3,0-2.7-0.2-3.9-0.6
		c-1.1-0.4-2.1-1-3-1.8c-0.9-0.8-1.5-1.7-2-2.8c-0.5-1.1-0.7-2.4-0.7-3.6c0-1.4,0.2-2.7,0.7-4c0.4-1.1,1.1-2,2-2.8
		c0.9-0.7,1.9-1.3,3-1.7c1.1-0.4,2.3-0.6,3.5-0.5c1.3-0.1,2.7,0.2,3.8,0.9c0.9,0.5,1.4,1.4,1.4,2.3c0,0.4-0.1,0.9-0.3,1.2
		c-0.2,0.4-0.4,0.7-0.7,1c-0.5-0.2-0.9-0.4-1.4-0.5C147.9,38.5,147.3,38.4,146.7,38.4z"/>
	<path class="st0" d="M171,42.7c0,1.3-0.2,2.6-0.7,3.8c-0.4,1.1-1,2-1.9,2.8c-0.8,0.8-1.8,1.3-2.8,1.7c-1.2,0.4-2.4,0.6-3.7,0.6
		c-1.3,0-2.5-0.2-3.7-0.6c-1.1-0.4-2-1-2.9-1.8c-0.8-0.8-1.4-1.8-1.9-2.8c-0.5-1.2-0.7-2.5-0.7-3.7c0-1.3,0.2-2.5,0.7-3.7
		c0.4-1.1,1-2,1.9-2.8c0.8-0.8,1.8-1.4,2.9-1.8c1.2-0.4,2.4-0.6,3.7-0.6c1.3,0,2.5,0.2,3.7,0.6c1.1,0.4,2,1,2.9,1.8
		c0.8,0.8,1.5,1.8,1.9,2.8C170.8,40.2,171,41.4,171,42.7z M158.9,42.7c-0.1,1.1,0.2,2.3,0.8,3.2c0.5,0.7,1.4,1.2,2.3,1.1
		c0.9,0,1.7-0.4,2.2-1.1c0.6-1,0.8-2.1,0.8-3.2c0.1-1.1-0.2-2.2-0.8-3.2c-0.9-1.2-2.7-1.5-3.9-0.6c-0.2,0.2-0.4,0.3-0.6,0.6
		C159.1,40.4,158.8,41.5,158.9,42.7L158.9,42.7z"/>
	<circle class="st0" cx="176" cy="48.3" r="3.1"/>
	<path class="st0" d="M175.2,27.3h-1.9v5.2H172v-5.2h-1.9v-1h5L175.2,27.3z"/>
	<path class="st0" d="M178,26.3l1.6,4.5l1.6-4.5h1.7v6.2h-1.3v-1.7l0.1-2.9l-1.7,4.6h-0.9l-1.7-4.6l0.1,2.9v1.7h-1.3v-6.2H178z"/>
</g>
</svg>
